<?xml version="1.0" standalone="no"?>
<!DOCTYPE svg PUBLIC "-//W3C//DTD SVG 1.1//EN"
"http://www.w3.org/Graphics/SVG/1.1/DTD/svg11.dtd">

<svg width="286" height="211" view_box="0 0 286 211"
xmlns="http://www.w3.org/2000/svg"
xmlns:link="http://www.w3.org/1999/xlink">\n\n<desc>Généré par Mocodo 2.3.7 le Sat, 19 Jun 2021 07:26:15</desc>

<rect id="frame" x="0" y="0" width="286" height="211" fill="#ffffbf" stroke="none" stroke-width="0"/>

<!-- Association Gèrer -->
<line x1="48" y1="51" x2="154" y2="51" stroke="#66c2a5" stroke-width="2"/>
<text x="81" y="68.0" fill="#d53e4f" font-family="Verdana" font-size="12">1,1</text>
<line x1="244" y1="51" x2="154" y2="51" stroke="#66c2a5" stroke-width="2"/>
<text x="184" y="68.0" fill="#d53e4f" font-family="Verdana" font-size="12">0,N</text>
<g id="association-Gèrer">
	<path d="M 165 26 a 14 14 90 0 1 14 14 V 51 h -50 V 40 a 14 14 90 0 1 14 -14" fill="#abdda4" stroke="#abdda4" stroke-width="0"/>
	<path d="M 179 51.0 v 11 a 14 14 90 0 1 -14 14 H 143 a 14 14 90 0 1 -14 -14 V 51.0 H 50" fill="#e6f598" stroke="#e6f598" stroke-width="0"/>
	<rect x="129" y="26" width="50" height="50" fill="none" rx="14" stroke="#66c2a5" stroke-width="2"/>
	<line x1="129" y1="51" x2="179" y2="51" stroke="#66c2a5" stroke-width="1"/>
	<text x="136" y="43.7" fill="#000000" font-family="Verdana" font-size="12">Gèrer</text>
</g>

<!-- Association Appartenir -->
<line x1="154" y1="160" x2="48" y2="160" stroke="#66c2a5" stroke-width="2"/>
<text x="92" y="177.0" fill="#d53e4f" font-family="Verdana" font-size="12">0,N</text>
<line x1="48" y1="51" x2="48" y2="160" stroke="#66c2a5" stroke-width="2"/>
<text x="53.0" y="110" fill="#d53e4f" font-family="Verdana" font-size="12">1,1</text>
<g id="association-Appartenir">
	<path d="M 73 135 a 14 14 90 0 1 14 14 V 160 h -78 V 149 a 14 14 90 0 1 14 -14" fill="#abdda4" stroke="#abdda4" stroke-width="0"/>
	<path d="M 87 160.0 v 11 a 14 14 90 0 1 -14 14 H 23 a 14 14 90 0 1 -14 -14 V 160.0 H 78" fill="#e6f598" stroke="#e6f598" stroke-width="0"/>
	<rect x="9" y="135" width="78" height="50" fill="none" rx="14" stroke="#66c2a5" stroke-width="2"/>
	<line x1="9" y1="160" x2="87" y2="160" stroke="#66c2a5" stroke-width="1"/>
	<text x="16" y="152.7" fill="#000000" font-family="Verdana" font-size="12">Appartenir</text>
</g>

<!-- Entity Status -->
<g id="entity-Status">
	<g id="frame-Status">
		<rect x="211" y="9" width="66" height="25" fill="#fdae61" stroke="#fdae61" stroke-width="0"/>
		<rect x="211" y="34.0" width="66" height="59" fill="#fee08b" stroke="#fee08b" stroke-width="0"/>
		<rect x="211" y="9" width="66" height="84" fill="none" stroke="#f46d43" stroke-width="2"/>
		<line x1="211" y1="34" x2="277" y2="34" stroke="#f46d43" stroke-width="1"/>
	</g>
	<text x="224" y="26.7" fill="#000000" font-family="Verdana" font-size="12">Status</text>
	<text x="216" y="51.8" fill="#000000" font-family="Verdana" font-size="12">active</text>
	<line x1="216" y1="54" x2="253" y2="54" stroke="#000000" stroke-width="1"/>
	<text x="216" y="68.8" fill="#000000" font-family="Verdana" font-size="12">terminée</text>
	<text x="216" y="85.8" fill="#000000" font-family="Verdana" font-size="12">archivée</text>
</g>

<!-- Entity Catégorie -->
<g id="entity-Catégorie">
	<g id="frame-Catégorie">
		<rect x="119" y="118" width="70" height="25" fill="#fdae61" stroke="#fdae61" stroke-width="0"/>
		<rect x="119" y="143.0" width="70" height="59" fill="#fee08b" stroke="#fee08b" stroke-width="0"/>
		<rect x="119" y="118" width="70" height="84" fill="none" stroke="#f46d43" stroke-width="2"/>
		<line x1="119" y1="143" x2="189" y2="143" stroke="#f46d43" stroke-width="1"/>
	</g>
	<text x="124" y="135.7" fill="#000000" font-family="Verdana" font-size="12">Catégorie</text>
	<text x="124" y="160.8" fill="#000000" font-family="Verdana" font-size="12">nom</text>
	<line x1="124" y1="163" x2="152" y2="163" stroke="#000000" stroke-width="1"/>
	<text x="124" y="177.8" fill="#000000" font-family="Verdana" font-size="12">créer le</text>
	<text x="124" y="194.8" fill="#000000" font-family="Verdana" font-size="12">satus</text>
</g>

<!-- Entity Task -->
<g id="entity-Task">
	<g id="frame-Task">
		<rect x="20" y="9" width="56" height="25" fill="#fdae61" stroke="#fdae61" stroke-width="0"/>
		<rect x="20" y="34.0" width="56" height="59" fill="#fee08b" stroke="#fee08b" stroke-width="0"/>
		<rect x="20" y="9" width="56" height="84" fill="none" stroke="#f46d43" stroke-width="2"/>
		<line x1="20" y1="34" x2="76" y2="34" stroke="#f46d43" stroke-width="1"/>
	</g>
	<text x="33" y="26.7" fill="#000000" font-family="Verdana" font-size="12">Task</text>
	<text x="25" y="51.8" fill="#000000" font-family="Verdana" font-size="12">nom</text>
	<line x1="25" y1="54" x2="53" y2="54" stroke="#000000" stroke-width="1"/>
	<text x="25" y="68.8" fill="#000000" font-family="Verdana" font-size="12">créer le</text>
</g>
</svg>